<svg xmlns="http://www.w3.org/2000/svg" width="136.06" height="136.06" viewBox="0 0 136.06 136.06"><defs><style>.a,.b,.c{fill:none;}.a{stroke:#ffa600;}.a,.b{stroke-linecap:round;stroke-linejoin:round;}.b{stroke:#000;stroke-width:0.5px;}</style></defs><title>flow_3</title><polygon class="a" points="70.02 69.8 70.02 49.37 106.69 74.99 106.69 95.42 70.02 69.8"/><polygon class="a" points="30.64 60.7 30.64 40.27 67.3 65.89 67.3 86.32 30.64 60.7"/><polygon class="b" points="13.47 63.17 13.47 24.86 82.19 72.9 82.19 111.2 13.47 63.17"/><polygon class="b" points="53.87 63.17 53.87 24.86 122.6 72.9 122.6 111.2 53.87 63.17"/><polygon class="b" points="40.4 63.17 40.4 24.86 109.13 72.9 109.13 111.2 40.4 63.17"/><polygon class="b" points="26.93 63.17 26.93 24.86 95.66 72.9 95.66 111.2 26.93 63.17"/><rect class="c" width="136.06" height="136.06"/></svg>