<svg xmlns="http://www.w3.org/2000/svg" width="136.06" height="136.06" viewBox="0 0 136.06 136.06"><defs><style>.a,.b,.c{fill:none;}.a{stroke:#ffa600;}.a,.b{stroke-linecap:round;stroke-linejoin:round;}.b{stroke:#000;stroke-width:0.5px;}</style></defs><title>flow_1</title><polygon class="a" points="51.39 93.15 13.09 93.15 61.12 24.42 99.42 24.42 51.39 93.15"/><polygon class="b" points="63.29 129.55 24.99 129.55 73.02 60.82 111.32 60.82 63.29 129.55"/><polygon class="b" points="43.92 106.94 16.83 79.86 99.39 65.23 126.48 92.31 43.92 106.94"/><polygon class="b" points="47.89 111.35 9.59 111.35 57.62 42.62 95.92 42.62 47.89 111.35"/><polygon class="b" points="66.79 102.25 28.49 102.25 76.52 33.52 114.82 33.52 66.79 102.25"/><polygon class="b" points="106.02 54.55 106.02 92.85 37.29 44.81 37.29 6.52 106.02 54.55"/><rect class="c" width="136.06" height="136.06"/></svg>