<svg xmlns="http://www.w3.org/2000/svg" width="136.06" height="136.06" viewBox="0 0 136.06 136.06"><defs><style>.a,.c{fill:none;}.a{stroke:#000;stroke-linecap:round;stroke-linejoin:round;stroke-width:0.5px;}.b{fill:#ffa600;}</style></defs><title>flow_2</title><polygon class="a" points="63.17 102.39 24.86 102.39 72.9 33.67 111.2 33.67 63.17 102.39"/><polygon class="a" points="46.64 95.36 13.47 76.21 89.43 40.71 122.6 59.85 46.64 95.36"/><polygon class="a" points="35.84 81 16.69 47.83 100.23 55.07 119.37 88.23 35.84 81"/><polygon class="a" points="33.67 63.17 33.67 24.86 102.39 72.9 102.39 111.2 33.67 63.17"/><polygon class="a" points="40.7 46.64 59.85 13.47 95.36 89.43 76.21 122.6 40.7 46.64"/><polygon class="a" points="55.06 35.84 88.23 16.69 81 100.23 47.83 119.37 55.06 35.84"/><path class="b" d="M83.8,63.87l-2.46-5.25-.59-1.27-1.15-.8-4.75-3.32-1.15-.8L72.3,52.3l-5.78-.5-1.4-.12-1.27.59-5.25,2.45-1.27.59-.8,1.15-3.32,4.76-.8,1.15-.12,1.4-.5,5.77-.12,1.4.59,1.27,2.46,5.25.59,1.27,1.15.8,4.75,3.32,1.15.8,1.39.12,5.78.5,1.39.12,1.27-.59,5.25-2.46,1.27-.59.8-1.15,3.32-4.75.8-1.15.12-1.4.5-5.78.12-1.4ZM83,73.46l-4.71,6.74L70.8,83.68,62.61,83l-6.74-4.71L52.39,70.8l.71-8.19,4.71-6.75,7.45-3.48,8.19.71,6.74,4.71,3.48,7.45Z"/><rect class="c" width="136.06" height="136.06"/></svg>