<svg xmlns="http://www.w3.org/2000/svg" width="29.33" height="29.33" viewBox="0 0 29.33 29.33"><defs><style>.a{fill:#ffa601;}.b{fill:#fff;}</style></defs><title>copy</title><path class="a" d="M14.66,0A14.66,14.66,0,1,0,29.33,14.66,14.66,14.66,0,0,0,14.66,0Z"/><path class="b" d="M16.82,9.77h-7A1.19,1.19,0,0,0,8.64,11V21a1.19,1.19,0,0,0,1.19,1.19h7A1.19,1.19,0,0,0,18,21V11A1.19,1.19,0,0,0,16.82,9.77Z"/><path class="b" d="M19.5,7.14h-7a1.19,1.19,0,0,0-1.19,1.19.42.42,0,0,0,.83,0A.36.36,0,0,1,12.5,8h7a.36.36,0,0,1,.36.36v10a.36.36,0,0,1-.36.36.42.42,0,0,0,0,.83,1.19,1.19,0,0,0,1.19-1.19v-10A1.19,1.19,0,0,0,19.5,7.14Z"/></svg>