<svg xmlns="http://www.w3.org/2000/svg" width="144" height="39.47" viewBox="0 0 144 39.47"><defs><style>.a{fill:#ffa601;}</style></defs><title>frontage_h</title><polygon class="a" points="8.78 15.76 0 15.76 11.02 0 19.8 0 8.78 15.76"/><polygon class="a" points="23.42 15.76 14.64 15.76 25.65 0 34.44 0 23.42 15.76"/><path d="M26.63,23.6v2.54h-9v4h7.78v2.58H17.65v6.58H14.94V23.6Z"/><path d="M38.58,33.91A5.38,5.38,0,0,0,42.27,29a5.68,5.68,0,0,0-5.9-5.39H29.85V39.33h2.73V34.41h2.35l5.37,4.92h4L38.39,34Zm-6-2.08V26.14h3.78A3,3,0,0,1,39.53,29a3,3,0,0,1-3.17,2.85Z"/><path d="M55,23.44H51.32A5.74,5.74,0,0,0,45.42,29v4.94a5.74,5.74,0,0,0,5.9,5.55H55a5.73,5.73,0,0,0,5.9-5.55V29A5.74,5.74,0,0,0,55,23.44Zm3.16,10.48a3.09,3.09,0,0,1-3.16,3H51.32a3.1,3.1,0,0,1-3.18-3V29a3.09,3.09,0,0,1,3.18-3H55a3.08,3.08,0,0,1,3.16,3Z"/><path d="M96.53,23.6v2.54h-6V39.33H87.76V26.14h-6V23.6Z"/><path d="M112.42,39.33,104.8,23.6h-2.2L94.91,39.33h2.93s2.39-4.84,2.49-4.91h6.8l2.31,4.9Zm-10.91-7.49,2.17-4.45,2.16,4.45Z"/><path d="M113.36,33.92V29a5.74,5.74,0,0,1,5.91-5.54h6.51V26h-6.51a3.08,3.08,0,0,0-3.18,3v4.94a3.1,3.1,0,0,0,3.18,3h3.63a3.08,3.08,0,0,0,3.15-3V32.74h-5.4V30.16h8.15v3.76a5.74,5.74,0,0,1-5.9,5.55h-3.63A5.74,5.74,0,0,1,113.36,33.92Z"/><path d="M68.23,23.6l8.19,10.79V23.6h2.73V39.33H76.59L67.35,27.07V39.33H64.62V23.6Z"/><path d="M144,23.6v2.54h-8.88v4h7.25v2.58h-7.25v4H144v2.55H132.39V23.6Z"/></svg>