<svg xmlns="http://www.w3.org/2000/svg" width="157" height="93.29" viewBox="0 0 157 93.29"><defs><style>.a{fill:#ffa601;}</style></defs><title>frontage</title><polyline class="a" points="40.04 71.86 0 71.86 50.22 0 90.26 0 40.04 71.86"/><polyline class="a" points="106.78 71.86 66.74 71.86 116.95 0 157 0 106.78 71.86"/><path d="M74.74,82.52v1.73H68.65V87h5.28v1.75H68.65V93.2H66.81V82.52h7.93"/><path d="M78.78,88.11V84.25h2.56a1.94,1.94,0,1,1,0,3.86H78.78m4.07,1.41a3.65,3.65,0,0,0,2.5-3.34,3.85,3.85,0,0,0-4-3.66H76.93V93.2h1.85V89.86h1.59L84,93.2h2.7l-4-3.63Z"/><path d="M96.1,89.53a2.1,2.1,0,0,1-2.14,2H91.49a2.11,2.11,0,0,1-2.16-2V86.18a2.09,2.09,0,0,1,2.16-2H94a2.08,2.08,0,0,1,2.14,2v3.35M94,82.42H91.49a3.9,3.9,0,0,0-4,3.76v3.35a3.89,3.89,0,0,0,4,3.76H94a3.89,3.89,0,0,0,4-3.76V86.18A3.89,3.89,0,0,0,94,82.42Z"/><polyline points="122.16 82.52 122.16 84.25 118.06 84.25 118.06 93.2 116.21 93.2 116.21 84.25 112.11 84.25 112.11 82.52 122.16 82.52"/><path d="M125.54,88.11l1.47-3,1.47,3h-2.94m7.4,5.08-5.17-10.67h-1.49L121.06,93.2h2s1.62-3.28,1.69-3.33h4.61l1.56,3.32Z"/><path d="M133.58,89.53V86.18a3.89,3.89,0,0,1,4-3.76H142v1.74h-4.42a2.09,2.09,0,0,0-2.15,2v3.35a2.1,2.1,0,0,0,2.15,2H140a2.09,2.09,0,0,0,2.14-2v-.8h-3.66V87H144v2.55a3.89,3.89,0,0,1-4,3.76h-2.46a3.89,3.89,0,0,1-4-3.76"/><polyline points="102.96 82.52 108.52 89.85 108.52 82.52 110.37 82.52 110.37 93.2 108.64 93.2 102.36 84.88 102.36 93.2 100.52 93.2 100.52 82.52 102.96 82.52"/><polyline points="154.36 82.52 154.36 84.25 148.34 84.25 148.34 86.98 153.25 86.98 153.25 88.73 148.34 88.73 148.34 91.47 154.36 91.47 154.36 93.2 146.48 93.2 146.48 82.52 154.36 82.52"/></svg>