<svg xmlns="http://www.w3.org/2000/svg" width="29.33" height="29.33" viewBox="0 0 29.33 29.33"><defs><style>.a{fill:#ffa601;}.b{fill:#fff;}</style></defs><title>twitter</title><circle class="a" cx="14.66" cy="14.66" r="14.66"/><path class="b" d="M22,11.88q0,.23,0,.46A10.05,10.05,0,0,1,6.56,20.81a7.2,7.2,0,0,0,.84,0,7.09,7.09,0,0,0,4.39-1.51,3.54,3.54,0,0,1-3.3-2.46,3.53,3.53,0,0,0,1.6-.06,3.54,3.54,0,0,1-2.84-3.47s0,0,0,0a3.51,3.51,0,0,0,1.6.44A3.54,3.54,0,0,1,7.76,9,10,10,0,0,0,15,12.74a3.54,3.54,0,0,1,6-3.22,7.08,7.08,0,0,0,2.24-.86,3.55,3.55,0,0,1-1.55,2,7.06,7.06,0,0,0,2-.56A7.19,7.19,0,0,1,22,11.88Z"/></svg>