<svg xmlns="http://www.w3.org/2000/svg" width="128" height="120" viewBox="0 0 128 120"><defs><style>.a,.b,.c{fill:none;}.a{stroke:#ffa600;}.a,.b{stroke-linecap:round;stroke-linejoin:round;stroke-width:0.5px;}.b{stroke:#000;}</style></defs><title>college</title><polygon class="a" points="110.42 64.17 110.42 75.44 90.19 61.3 90.19 50.03 110.42 64.17"/><polygon class="a" points="110.42 79.18 110.42 85.39 99.27 77.6 99.27 71.39 110.42 79.18"/><polygon class="b" points="68.01 38.4 68.01 10.16 118.69 45.57 118.69 73.81 68.01 38.4"/><polygon class="a" points="76.37 60.99 76.37 70.17 59.9 58.66 59.9 49.48 76.37 60.99"/><polygon class="a" points="76.37 73.22 76.37 78.28 67.29 71.93 67.29 66.87 76.37 73.22"/><polygon class="b" points="41.84 40 41.84 17 83.11 45.85 83.11 68.84 41.84 40"/><polygon class="a" points="90.16 98.29 90.16 108.07 72.61 95.81 72.61 86.03 90.16 98.29"/><polygon class="a" points="90.16 111.32 90.16 116.71 80.49 109.95 80.49 104.56 90.16 111.32"/><polygon class="b" points="53.37 75.93 53.37 51.43 97.34 82.16 97.34 106.66 53.37 75.93"/><polygon class="a" points="50.66 79.88 50.66 87.85 36.37 77.86 36.37 69.89 50.66 79.88"/><polygon class="a" points="50.66 90.49 50.66 94.88 42.78 89.38 42.78 84.98 50.66 90.49"/><polygon class="b" points="20.7 61.67 20.7 41.71 56.51 66.74 56.51 86.7 20.7 61.67"/><polygon class="a" points="39.28 41.46 39.28 49.42 24.99 39.44 24.99 31.47 39.28 41.46"/><polygon class="a" points="39.28 52.07 39.28 56.46 31.4 50.95 31.4 46.56 39.28 52.07"/><polygon class="b" points="9.31 23.25 9.31 3.29 45.12 28.32 45.12 48.27 9.31 23.25"/><rect class="c" width="128" height="120"/></svg>