<svg xmlns="http://www.w3.org/2000/svg" width="128" height="120" viewBox="0 0 128 120"><defs><style>.a,.b,.c{fill:none;}.a{stroke:#000;}.a,.b{stroke-linecap:round;stroke-linejoin:round;stroke-width:0.5px;}.b{stroke:#ffa600;}</style></defs><title>lab</title><polygon class="a" points="75.53 85.78 90.04 85.78 71.85 111.82 57.34 111.82 75.53 85.78"/><polygon class="b" points="103.95 63.04 118.46 63.04 100.27 89.08 85.76 89.08 103.95 63.04"/><polygon class="b" points="109.02 18.17 123.53 18.17 105.33 44.2 90.82 44.2 109.02 18.17"/><polygon class="a" points="106.79 40.3 121.3 40.3 103.1 66.33 88.59 66.33 106.79 40.3"/><polygon class="a" points="50.55 84.92 65.06 84.92 46.87 110.95 32.36 110.95 50.55 84.92"/><polygon class="a" points="78.97 62.13 93.48 62.13 75.29 88.16 60.78 88.16 78.97 62.13"/><polygon class="a" points="84.04 17.31 98.55 17.31 80.35 43.34 65.84 43.34 84.04 17.31"/><polygon class="a" points="81.81 39.5 96.32 39.5 78.12 65.53 63.62 65.53 81.81 39.5"/><polygon class="a" points="25.93 84.06 40.44 84.06 22.25 110.09 7.74 110.09 25.93 84.06"/><polygon class="b" points="54.35 61.26 68.86 61.26 50.66 87.3 36.16 87.3 54.35 61.26"/><polygon class="a" points="59.41 16.45 73.92 16.45 55.73 42.48 41.22 42.48 59.41 16.45"/><polygon class="a" points="57.19 38.63 71.69 38.63 53.5 64.67 38.99 64.67 57.19 38.63"/><polygon class="b" points="52.47 34.22 37.96 34.22 56.15 8.18 70.66 8.18 52.47 34.22"/><polygon class="a" points="24.05 56.96 9.54 56.96 27.73 30.93 42.24 30.93 24.05 56.96"/><polygon class="b" points="18.98 101.83 4.47 101.83 22.67 75.8 37.18 75.8 18.98 101.83"/><polygon class="a" points="21.21 79.7 6.7 79.7 24.9 53.66 39.41 53.66 21.21 79.7"/><polygon class="a" points="77.44 35.08 62.94 35.08 81.13 9.05 95.64 9.05 77.44 35.08"/><polygon class="b" points="49.03 57.88 34.52 57.88 52.71 31.84 67.22 31.84 49.03 57.88"/><polygon class="a" points="43.96 102.69 29.45 102.69 47.65 76.66 62.16 76.66 43.96 102.69"/><polygon class="a" points="46.19 80.5 31.68 80.5 49.88 54.47 64.38 54.47 46.19 80.5"/><polygon class="a" points="102.07 35.94 87.56 35.94 105.75 9.91 120.26 9.91 102.07 35.94"/><polygon class="b" points="73.65 58.74 59.14 58.74 77.34 32.7 91.84 32.7 73.65 58.74"/><polygon class="b" points="68.59 103.55 54.08 103.55 72.27 77.52 86.78 77.52 68.59 103.55"/><polygon class="a" points="70.81 81.36 56.3 81.36 74.5 55.33 89.01 55.33 70.81 81.36"/><rect class="c" width="128" height="120"/></svg>