<svg xmlns="http://www.w3.org/2000/svg" width="128" height="120" viewBox="0 0 128 120"><defs><style>.a,.b,.c{fill:none;}.a{stroke:#000;}.a,.b{stroke-linecap:round;stroke-linejoin:round;stroke-width:0.5px;}.b{stroke:#ffa600;}</style></defs><title>note</title><polygon class="a" points="18.93 27.43 18.93 5.36 58.51 33.03 58.51 55.09 18.93 27.43"/><polygon class="b" points="69.49 27.43 69.49 5.36 109.07 33.03 109.07 55.09 69.49 27.43"/><polygon class="a" points="52.63 27.43 52.63 5.36 92.22 33.03 92.22 55.09 52.63 27.43"/><polygon class="b" points="35.78 27.43 35.78 5.36 75.36 33.03 75.36 55.09 35.78 27.43"/><polygon class="b" points="18.93 57.2 18.93 35.14 58.51 62.8 58.51 84.86 18.93 57.2"/><polygon class="a" points="69.49 57.2 69.49 35.14 109.07 62.8 109.07 84.86 69.49 57.2"/><polygon class="b" points="52.63 57.2 52.63 35.14 92.22 62.8 92.22 84.86 52.63 57.2"/><polygon class="a" points="35.78 57.2 35.78 35.14 75.36 62.8 75.36 84.86 35.78 57.2"/><polygon class="b" points="69.49 86.97 69.49 64.91 109.07 92.58 109.07 114.64 69.49 86.97"/><polygon class="b" points="35.78 86.97 35.78 64.91 75.36 92.58 75.36 114.64 35.78 86.97"/><polygon class="a" points="18.93 86.97 18.93 64.91 58.51 92.58 58.51 114.64 18.93 86.97"/><polygon class="a" points="52.63 86.97 52.63 64.91 92.22 92.58 92.22 114.64 52.63 86.97"/><rect class="c" width="128" height="120"/></svg>