<svg xmlns="http://www.w3.org/2000/svg" viewBox="0 0 109.63 109.63"><defs><style>.cls-1{fill:none;stroke:#000;stroke-linecap:round;stroke-linejoin:round;stroke-width:0.5px;}.cls-2{fill:#ffa600;}</style></defs><title>アセット 2</title><g id="レイヤー_2" data-name="レイヤー 2"><g id="design"><polygon class="cls-1" points="49.95 89.18 11.65 89.18 59.68 20.45 97.98 20.45 49.95 89.18"/><polygon class="cls-1" points="33.42 82.14 0.25 62.99 76.21 27.49 109.38 46.64 33.42 82.14"/><polygon class="cls-1" points="22.62 67.78 3.47 34.61 87.01 41.85 106.16 75.02 22.62 67.78"/><polygon class="cls-1" points="20.45 49.95 20.45 11.65 89.18 59.68 89.18 97.98 20.45 49.95"/><polygon class="cls-1" points="27.49 33.42 46.64 0.25 82.14 76.21 62.99 109.38 27.49 33.42"/><polygon class="cls-1" points="41.85 22.62 75.02 3.47 67.78 87.01 34.61 106.16 41.85 22.62"/><path class="cls-2" d="M70.58,50.65,68.12,45.4l-.59-1.27-1.15-.81L61.63,40l-1.15-.8-1.39-.12-5.78-.5-1.39-.12-1.27.59L45.4,41.51l-1.27.59-.81,1.15L40,48l-.8,1.15-.12,1.4-.5,5.77-.12,1.4L39.05,59l2.45,5.26.6,1.26,1.15.81L48,69.63l1.15.8,1.39.12,5.78.5,1.39.12L59,70.58l5.26-2.45,1.27-.6.8-1.15,3.32-4.75.8-1.14.12-1.4.5-5.78.12-1.39Zm-.83,9.59L65,67l-7.45,3.48-8.2-.71L42.65,65l-3.48-7.45.71-8.19,4.71-6.75L52,39.17l8.2.71L67,44.59,70.46,52Z"/></g></g></svg>