<svg xmlns="http://www.w3.org/2000/svg" viewBox="0 0 117.39 123.53"><defs><style>.cls-1,.cls-2{fill:none;stroke-linecap:round;stroke-linejoin:round;}.cls-1{stroke:#ffa600;}.cls-2{stroke:#000;stroke-width:0.5px;}</style></defs><title>アセット 1</title><g id="レイヤー_2" data-name="レイヤー 2"><g id="design"><polygon class="cls-1" points="42.05 86.88 3.75 86.88 51.78 18.15 90.08 18.15 42.05 86.88"/><polygon class="cls-2" points="53.95 123.28 15.65 123.28 63.69 54.55 101.98 54.55 53.95 123.28"/><polygon class="cls-2" points="34.58 100.68 7.5 73.59 90.06 58.96 117.14 86.04 34.58 100.68"/><polygon class="cls-2" points="38.55 105.08 0.25 105.08 48.28 36.35 86.58 36.35 38.55 105.08"/><polygon class="cls-2" points="57.45 95.98 19.15 95.98 67.19 27.25 105.48 27.25 57.45 95.98"/><polygon class="cls-2" points="96.68 48.28 96.68 86.58 27.95 38.55 27.95 0.25 96.68 48.28"/></g></g></svg>