<svg xmlns="http://www.w3.org/2000/svg" viewBox="0 0 109.63 86.83"><defs><style>.cls-1,.cls-2{fill:none;stroke-linecap:round;stroke-linejoin:round;}.cls-1{stroke:#ffa600;}.cls-2{stroke:#000;stroke-width:0.5px;}</style></defs><title>アセット 3</title><g id="レイヤー_2" data-name="レイヤー 2"><g id="design"><polygon class="cls-1" points="56.8 45.18 56.8 24.75 93.47 50.38 93.47 70.81 56.8 45.18"/><polygon class="cls-1" points="17.42 36.08 17.42 15.65 54.08 41.28 54.08 61.71 17.42 36.08"/><polygon class="cls-2" points="0.25 38.55 0.25 0.25 68.98 48.28 68.98 86.58 0.25 38.55"/><polygon class="cls-2" points="40.65 38.55 40.65 0.25 109.38 48.28 109.38 86.58 40.65 38.55"/><polygon class="cls-2" points="27.18 38.55 27.18 0.25 95.91 48.28 95.91 86.58 27.18 38.55"/><polygon class="cls-2" points="13.72 38.55 13.72 0.25 82.44 48.28 82.44 86.58 13.72 38.55"/></g></g></svg>