<svg xmlns="http://www.w3.org/2000/svg" width="492.9" height="277.13" viewBox="0 0 492.9 277.13"><defs><style>.a{fill:#000;stroke:#000;stroke-miterlimit:10;stroke-width:3px;}</style></defs><title>catch_sp</title><path class="a" d="M76.57,78.83H63.93V40.41c0-9.51.1-17.84.2-26.85H62.75c-2,8.72-3.72,16.56-6.27,25.87L46.19,78.83H30.71l-10-38.91c-2.35-8.82-4.21-17.05-6.47-26.36H12.87c.2,8.82.29,17.64.29,27.05V78.83H1.5V2.77H23l9.6,38.81c2,7.94,3.92,16.76,5.49,25.09h1.37c2.06-8.33,3.63-16.17,5.88-24.89l9.7-39H76.57Z"/><path class="a" d="M154.78,40.8c0,25.09-13.13,39.5-32.64,39.5S89.6,66.09,89.6,41,102.83,1.5,122.24,1.5,154.78,15.61,154.78,40.8Zm-51.16.1c0,19.41,7.45,29.21,18.62,29.21s18.52-9.8,18.52-29.21-7.35-29.21-18.52-29.21S103.62,21.4,103.62,40.9Z"/><path class="a" d="M216.22,13.46H193.58V78.83H180.25V13.46H157.81V2.77h58.41Z"/><path class="a" d="M238.76,78.83H225.43V2.77h13.33Z"/><path class="a" d="M286.68,78.83H270.21l-23-76.05h14.21l9.9,35.77c2.84,9.9,4.8,18.82,7.15,28.13h1.37c2.16-9.11,4.31-17.94,7.06-27.74l10-36.16h13Z"/><path class="a" d="M360.47,78.83H346.66l-6.47-22.35H316.86l-6.57,22.35H297.75L321.08,2.77h16ZM333.42,31.29c-1.67-6-2.84-11.56-4.51-18.72H328c-1.67,7.25-3,12.74-4.7,18.62l-4.12,15.49h18.62Z"/><path class="a" d="M411.43,13.46H388.79V78.83H375.46V13.46H353V2.77h58.41Z"/><path class="a" d="M470.82,13.26H433.87V33.35H461.8V43.84H433.87v24.5H471.6V78.83h-51V2.77h50.18Z"/><path class="a" d="M342.15,111.12H319.51v65.37H306.18V111.12H283.74V100.44h58.41Z"/><path class="a" d="M407.32,176.49H394.18v-34.3H362.53v34.3H349.4V100.44h13.13v31h31.66v-31h13.13Z"/><path class="a" d="M470.82,110.93H433.87V131H461.8V141.5H433.87V166H471.6v10.49h-51V100.44h50.18Z"/><path class="a" d="M191.62,274.16H175.35l-6.57-35.38c-1.86-10.19-2.84-18.62-4.21-28.52H163.2c-1.37,10-2.45,18.43-4.21,28.13l-6.17,35.77H136.54l-14.8-76.05h13.43l5.49,34.69c1.37,9.31,2.65,18.52,3.82,28.23h1.37c1.37-9.51,2.35-18.82,4-27.93l6.17-35h17l6.37,36.16c1.47,8.63,2.65,16.66,3.72,26.76h1.37c1.47-10.19,2.35-17.94,3.82-27.34l5.88-35.58h12.64Z"/><path class="a" d="M274.24,236.13c0,25.09-13.13,39.5-32.64,39.5s-32.54-14.21-32.54-39.3,13.23-39.5,32.64-39.5S274.24,210.94,274.24,236.13Zm-51.16.1c0,19.41,7.45,29.21,18.62,29.21s18.52-9.8,18.52-29.21S252.87,207,241.7,207,223.08,216.73,223.08,236.23Z"/><path class="a" d="M312.65,198.11c18.52,0,27,7.45,27,20.68,0,9.41-5.29,16.37-15.09,19.31l17.54,36.07H327.84l-15.39-34.11c-1.08,0-2.16.1-3.43.1H298.24v34H285.3V198.11Zm-14.41,32.24h13.23c10.39,0,14.9-4.31,14.9-11.37,0-6.76-3.82-11-14.31-11H298.24Z"/><path class="a" d="M366.15,263.48h35.67v10.68h-49V198.11h13.33Z"/><path class="a" d="M436.52,198.11c22.64,0,36.16,12,36.16,37.54s-15.09,38.52-37.93,38.52H411V198.11ZM424.17,264h10.29c14.8,0,24.21-8.43,24.21-28.23,0-19.6-8.82-27.44-23.52-27.44h-11Z"/></svg>