<svg xmlns="http://www.w3.org/2000/svg" width="525" height="175" viewBox="0 0 525 175"><defs><style>.a{fill:none;}</style></defs><title>catch_pc_1</title><rect class="a" width="525" height="175"/><path d="M134.34,21.87c-.05,5.33-.09,10.65-.09,16.43V75.08h14.61V2.25H126.38l-9.19,36.94C116,43.71,115,48,114.1,52.18c-.45,2-.91,4-1.4,6.08-1.23-6.17-2.7-12.74-4.3-19.23L99.3,2.25H76.92V75.08H90.63V38.48c0-5.73,0-11.27-.12-16.77,1.33,5.6,2.61,10.92,4.1,16.51l9.47,36.86h16.54l9.74-37.28C131.91,32.12,133.16,27,134.34,21.87Z"/><path d="M218.67,38.66c0-23.19-12-37.59-31.38-37.59s-31.47,14.47-31.47,37.77,12,37.59,31.38,37.59S218.67,62,218.67,38.66ZM187.3,64.07c-9.91,0-15.6-9.23-15.6-25.32s5.69-25.32,15.6-25.32,15.51,9.23,15.51,25.32S197.15,64.07,187.3,64.07Z"/><polygon points="220.47 15.05 241.08 15.05 241.08 75.08 256.32 75.08 256.32 15.05 277.11 15.05 277.11 2.25 220.47 2.25 220.47 15.05"/><rect x="282.57" y="2.25" width="15.24" height="72.84"/><path d="M350.53,2.25,341,36.55c-2.13,7.61-3.86,14.51-5.68,22.12q-.57-2.32-1.13-4.63c-1.38-5.71-2.82-11.61-4.61-17.84L320.24,2.25H304l22.06,72.84h17.34L365.67,2.25Z"/><path d="M367.13,75.08l6-20.52h19.17l5.94,20.52h15.85L391.68,2.25H374.8L352.46,75.08Zm15.58-57.35c1,4.53,1.93,8.44,3.09,12.6l3.5,12.23H376.15l3.27-12.31c1.13-4,2.14-7.87,3.27-12.61Z"/><polygon points="405.74 15.05 426.35 15.05 426.35 75.08 441.59 75.08 441.59 15.05 462.38 15.05 462.38 2.25 405.74 2.25 405.74 15.05"/><polygon points="517.64 62.45 482.99 62.45 482.99 42.95 508.64 42.95 508.64 30.32 482.99 30.32 482.99 14.88 516.92 14.88 516.92 2.25 467.84 2.25 467.84 75.08 517.64 75.08 517.64 62.45"/><polygon points="2.32 112.72 22.93 112.72 22.93 172.75 38.17 172.75 38.17 112.72 58.96 112.72 58.96 99.91 2.32 99.91 2.32 112.72"/><polygon points="104.16 128.35 78.09 128.35 78.09 99.91 63.03 99.91 63.03 172.75 78.09 172.75 78.09 141.25 104.16 141.25 104.16 172.75 119.22 172.75 119.22 99.91 104.16 99.91 104.16 128.35"/><polygon points="141.83 140.62 167.48 140.62 167.48 127.99 141.83 127.99 141.83 112.54 175.76 112.54 175.76 99.91 126.68 99.91 126.68 172.75 176.48 172.75 176.48 160.12 141.83 160.12 141.83 140.62"/><path d="M256.47,133.85c-.79,5.06-1.39,9.58-2,14.35-.18,1.33-.36,2.67-.54,4-.73-5.86-1.56-11.5-2.65-17.89l-6.07-34.45H227.09l-5.89,33.36c-1,5.57-1.77,11.33-2.5,16.9l-.3,2.29c-.78-6.05-1.66-12.36-2.7-19.42l-5.24-33.12H195l14.17,72.84h17.44l5.88-34.08c1.24-6.85,2.1-12.9,3-19.6.88,6.57,1.72,12.79,3,20l6.26,33.71h17.42l14.55-72.84H262.08Z"/><path d="M309,98.74c-19.41,0-31.47,14.47-31.47,37.77s12,37.59,31.38,37.59,31.47-14.47,31.47-37.77S328.36,98.74,309,98.74Zm0,63c-9.91,0-15.6-9.23-15.6-25.32s5.69-25.32,15.6-25.32,15.51,9.23,15.51,25.32S318.86,161.74,309,161.74Z"/><path d="M400.41,120.4c0-16.93-14.27-20.49-26.25-20.49H347.55v72.84h14.88V141.52h8.4c.63,0,1.21,0,1.77,0l.42,0,14.12,31.3h16.42L387.15,139C395.6,135.87,400.41,129.17,400.41,120.4Zm-38-8.4h11.19c10.32,0,11.64,4.58,11.64,8.58,0,6-4,8.94-12.18,8.94H362.43Z"/><polygon points="424.8 99.91 409.56 99.91 409.56 172.75 457.56 172.75 457.56 159.94 424.8 159.94 424.8 99.91"/><path d="M487.92,99.91H463v72.84H486.3c22.75,0,36.33-13.78,36.33-36.87C522.63,112.35,510.63,99.91,487.92,99.91Zm-9.84,12.36h8.58c13.71,0,20.1,7.53,20.1,23.7s-7,24.42-20.73,24.42h-8Z"/></svg>